<svg width="120" height="120" viewBox="0 0 120 120" fill="none" xmlns="http://www.w3.org/2000/svg">
  <!-- Main blue shape -->
  <path d="M84.9223 76.6967C89.8452 113.331 60.8583 120.788 45.7494 119.937C58.2367 118.616 66.9618 111.479 69.7635 108.076C83.9318 93.1821 79.7693 74.5447 75.9171 67.0877C71.4745 56.1575 65.8612 51.3229 63.6099 50.2719C48.7212 42.9451 31.6912 58.7299 25.0373 67.5381C17.3528 76.9069 18.7336 86.0554 20.3846 89.4586C27.4607 102.389 45.4338 88.6687 48.3009 84.6541C49.6969 82.6994 45.8995 81.8515 43.7983 81.6513C39.8733 81.2982 37.3591 79.7111 36.444 76.6967C35.2464 72.7518 40.4841 62.2096 47.8507 61.2322C53.4081 60.4949 50.9525 67.6382 49.0514 71.4418C47.4719 65.5162 42.5643 68.657 41.3969 71.4418C40.1962 74.8049 44.6988 74.4719 49.5016 75.0451C60.5456 76.3632 49.0059 93.0426 42.7477 97.4161C32.663 104.464 24.9143 102.718 21.135 99.2177C8.04736 85.8853 20.9349 65.0858 29.2398 56.5778C63.4598 23.1866 80.6198 56.0774 84.9223 76.6967Z" fill="#4682B4"/>
  
  <!-- Dark blue shape -->
  <path d="M62.1957 70.1305C70.4149 64.8562 74.3532 76.9056 74.0903 83.9824C73.0063 97.1116 60.2886 107.521 54.0653 111.084C34.4317 122.527 26.2109 111.435 24.5547 104.459C42.9984 117.539 63.6573 97.9452 69.5406 87.1562L63.852 88.8005C58.9342 89.9723 56.4872 86.4992 56.0226 84.7353C54.2095 79.0878 58.237 72.6755 62.1957 70.1305Z" fill="#002147"/>
  
  <!-- Yellow shape -->
  <path d="M11.8731 33.3181C12.1244 31.397 14.6872 30.9199 15.6131 32.6217L16.4523 34.1644C16.8664 34.9255 17.7235 35.3334 18.5753 35.1748L20.3017 34.8533C22.2064 34.4987 23.4522 36.7885 22.1197 38.195L20.912 39.4699C20.3161 40.0989 20.1929 41.0401 20.607 41.8012L21.4463 43.3438C22.3722 45.0457 20.5793 46.9381 18.8299 46.1055L17.2442 45.3508C16.4619 44.9784 15.5287 45.1521 14.9328 45.7811L13.725 47.056C12.3925 48.4625 10.0387 47.3422 10.29 45.4211L10.5178 43.6798C10.6302 42.8207 10.1765 41.9869 9.39419 41.6145L7.80849 40.8598C6.05908 40.0272 6.39718 37.4424 8.30189 37.0877L10.0284 36.7662C10.8802 36.6076 11.533 35.9186 11.6454 35.0594L11.8731 33.3181Z" fill="#F9CA54"/>
</svg>