<?xml version="1.0" encoding="UTF-8"?>
<svg id="Layer_1" data-name="Layer 1" xmlns="http://www.w3.org/2000/svg" viewBox="0 0 1080 540">
  <defs>
    <style>
      .cls-1 {
        fill: #30a1db;
      }

      .cls-2 {
        fill: #252258;
      }

      .cls-3 {
        fill: #64c8cc;
      }
    </style>
  </defs>
  <path class="cls-3" d="M771.39,379.64v-114.15c0-22.56,18.46-41.03,41.03-41.03h117.77v-121.63c0-2.45.16-4.86.42-7.24h-113.36c-95.04,0-172.79,77.76-172.79,172.79v111.26h126.94Z"/>
  <path class="cls-1" d="M930.2,224.47v114.15c0,22.56-18.46,41.03-41.03,41.03h-117.77v121.63c0,2.45-.16,4.86-.42,7.24h113.36c95.04,0,172.79-77.76,172.79-172.79v-111.26h-126.94Z"/>
  <g>
    <path class="cls-2" d="M278.06,98.05v127.77c0,9.41-8.07,15.13-14.79,15.13h-14.12v-112.97c-128.1,0-14.79,161.39-137.18,161.39-65.23,0-89.1-35.98-89.1-85.4,0-31.61,12.1-54.47,41.36-54.47l12.1,1.35v1.01c-15.13,7.06-26.9,31.27-26.9,49.43,0,32.61,5.38,60.18,64.56,60.86,78.68,0-22.19-164.08,135.16-164.08h28.92Z"/>
    <path class="cls-2" d="M439.78,190.52c0,24.88-4.03,46.4-6.05,53.12-9.75,31.94-39,56.15-80.36,56.15-15.13,0-27.57-3.7-27.57-15.47v-11.1c5.38,1.34,11.77,2.02,18.49,2.02,33.29,0,53.8-14.46,61.87-34.3-41.02-1.01-96.16-11.1-96.16-69.26,0-45.73,24.88-73.63,63.88-73.63,54.13,0,65.9,50.43,65.9,92.46ZM409.52,212.71c0-49.09,2.69-88.76-38.67-88.76-20.51,0-33.96,16.81-33.96,43.04,0,41.69,31.61,45.73,72.63,45.73ZM354.72,78.89c-4.04,0-6.72-3.36-6.72-6.39v-5.38h12.1l-1.01-2.02c-1.35-2.69-1.35-5.72-1.35-9.41,0-14.12,8.74-24.21,22.19-24.21,9.08,0,16.81,5.04,18.83,13.45,0,4.04-.67,7.4-3.36,10.76-5.38-13.45-14.46-14.12-16.48-14.12-3.36,0-9.08,1.68-9.08,13.11,0,5.04.34,9.75,4.04,12.44h28.58v5.38c0,3.03-2.69,6.39-7.06,6.39h-40.68Z"/>
    <path class="cls-2" d="M516.1,242.63c0,4.37,0-8.74,0,14.46s-19.5,42.7-46.06,42.7c-13.79,0-23.2-5.72-23.2-15.47v-7.73c2.69.34,5.38.67,8.07.67,37.99,0,32.28-21.85,32.28-65.9v-85.4h9.08c15.13,0,19.84,6.39,19.84,22.53v94.14Z"/>
  </g>
  <g>
    <path class="cls-2" d="M101.87,382.21c-4.71-4.04-13.11-7.73-23.54-7.73-20.17,0-27.91,10.09-27.91,42.7v85.74h-11.1c-9.41,0-14.79-7.4-14.79-17.48v-70.27c0-42.37,20.51-64.89,50.1-64.89,20.85,0,28.58,9.08,28.58,19.5v12.44h-1.34Z"/>
    <path class="cls-2" d="M172.15,505.94c-40.68,0-70.94-31.27-70.94-76.66,0-50.77,27.57-81.7,70.94-81.7,40.35,0,68.59,30.6,68.59,75.99,0,51.44-27.23,82.38-68.59,82.38ZM168.11,372.12c-24.54,0-40.68,19.84-40.68,51.78,0,34.97,17.15,57.16,47.07,57.16,25.89,0,39.68-21.52,39.68-51.44,0-37.99-15.8-57.49-46.06-57.49Z"/>
    <path class="cls-2" d="M316.39,505.94c-31.27,0-58.5-18.16-58.5-45.39,0-32.95,25.55-50.77,71.28-50.77h20.51v-7.06c0-22.53-11.1-31.61-35.98-31.61-22.86,0-39.68,8.74-48.42,20.85h-1.68v-12.44c0-14.12,18.49-32.28,52.79-32.28,38.67,0,59.51,20.17,59.51,57.49v47.74c0,30.93-16.81,53.46-59.51,53.46ZM350.01,431.63h-20.85c-30.6,0-44.72,9.41-44.72,26.22,0,13.45,13.45,23.87,32.95,23.87,23.2,0,32.61-9.08,32.61-31.27v-18.83Z"/>
    <path class="cls-2" d="M455.25,505.94c-31.27,0-58.5-18.16-58.5-45.39,0-32.95,25.55-50.77,71.28-50.77h20.51v-7.06c0-22.53-11.1-31.61-35.98-31.61-22.86,0-39.68,8.74-48.42,20.85h-1.68v-12.44c0-14.12,18.49-32.28,52.79-32.28,38.67,0,59.51,20.17,59.51,57.49v47.74c0,30.93-16.81,53.46-59.51,53.46ZM488.87,431.63h-20.85c-30.6,0-44.72,9.41-44.72,26.22,0,13.45,13.45,23.87,32.95,23.87,23.2,0,32.61-9.08,32.61-31.27v-18.83Z"/>
  </g>
</svg>